# xmcd CD database file
#
# Track frame offsets:
#	150
#	11370
#	25368
#	40500
#	60284
#	75550
#	87915
#	105935
#	122482
#	138458
#
# Disc length: 2075 seconds
#
# Revision: 0
# Processed by: cddbd v1.4PL0 Copyright (c) Steve Scherf et al.
# Submitted via: CDex 1.50Beta7
#
DISCID=6608190a
DTITLE=Ettore D. - Nocturne vol. 1
DYEAR=2002
DGENRE=Jazz
TTITLE0=La vie en rose
TTITLE1=Moon river
TTITLE2=Tu si' na' cosa grande
TTITLE3=Che sara'
TTITLE4=Resta cu me
TTITLE5=Summertime
TTITLE6=Take five
TTITLE7=Napule
TTITLE8=Ancora
TTITLE9=Parla piu' piano (speak softly love)
EXTD=YEAR: 2002
EXTT0=
EXTT1=
EXTT2=
EXTT3=
EXTT4=
EXTT5=
EXTT6=
EXTT7=
EXTT8=
EXTT9=
PLAYORDER=
